<svg id="Layer_1" data-name="Layer 1" xmlns="http://www.w3.org/2000/svg" viewBox="0 0 836.34 69.12"><path d="M13.61,25.06h-.72V61.13H4.82V10.87h11.6L29.59,46.94h.72V10.87h8.07V61.13H26.78Z" transform="translate(-4.82 -7.27)"/><path d="M64.8,62a19.84,19.84,0,0,1-7.6-1.37,15.66,15.66,0,0,1-5.68-3.88,17.08,17.08,0,0,1-3.6-6.12,24.06,24.06,0,0,1-1.26-8.07,24,24,0,0,1,1.26-8.06,17.08,17.08,0,0,1,3.6-6.12,15.68,15.68,0,0,1,5.68-3.89,21.65,21.65,0,0,1,15.16,0,15.75,15.75,0,0,1,5.72,3.89,17.22,17.22,0,0,1,3.6,6.12,24.3,24.3,0,0,1,1.26,8.06,24.32,24.32,0,0,1-1.26,8.07,17.22,17.22,0,0,1-3.6,6.12,15.73,15.73,0,0,1-5.72,3.88A19.88,19.88,0,0,1,64.8,62Zm0-7.05a8.23,8.23,0,0,0,6.26-2.42c1.54-1.6,2.31-4,2.31-7.09V39.67q0-4.68-2.31-7.09a8.23,8.23,0,0,0-6.26-2.41,8.23,8.23,0,0,0-6.26,2.41Q56.23,35,56.23,39.67v5.76c0,3.12.77,5.49,2.31,7.09A8.23,8.23,0,0,0,64.8,54.94Z" transform="translate(-4.82 -7.27)"/><path d="M110.52,61.13q-5.33,0-7.85-2.82A10.49,10.49,0,0,1,100.15,51V31.18H89.35V24h7.34a4.5,4.5,0,0,0,3.17-.9,4.35,4.35,0,0,0,.94-3.21v-9h8.57V24h15.12v7.2H109.37V53.93h15.12v7.2Z" transform="translate(-4.82 -7.27)"/><path d="M152.06,62a21.28,21.28,0,0,1-7.92-1.37,15.59,15.59,0,0,1-5.79-3.88,16.91,16.91,0,0,1-3.57-6.09,24.76,24.76,0,0,1-1.22-8,24.52,24.52,0,0,1,1.26-8.13,17.6,17.6,0,0,1,3.56-6.12A15.64,15.64,0,0,1,144,24.48a20.48,20.48,0,0,1,14.65,0,15.3,15.3,0,0,1,5.51,3.79,16.81,16.81,0,0,1,3.49,5.93,22.73,22.73,0,0,1,1.23,7.65v3H142.77v.93a8.75,8.75,0,0,0,2.52,6.52,9.66,9.66,0,0,0,7.06,2.48,12,12,0,0,0,5.94-1.4,12.71,12.71,0,0,0,4.14-3.71l5.26,5.23a16.48,16.48,0,0,1-5.87,5A20.49,20.49,0,0,1,152.06,62Zm-.65-32.11a8.27,8.27,0,0,0-6.26,2.47,9,9,0,0,0-2.38,6.53v.5h16.85v-.65a9.21,9.21,0,0,0-2.19-6.46A7.79,7.79,0,0,0,151.41,29.88Z" transform="translate(-4.82 -7.27)"/><path d="M177.77,7.85H187V30.53h.51a13.48,13.48,0,0,1,4.14-5.4,11.05,11.05,0,0,1,6.94-2,13.93,13.93,0,0,1,5.8,1.19,11.8,11.8,0,0,1,4.5,3.6A17.27,17.27,0,0,1,211.75,34a32.67,32.67,0,0,1,1,8.57,32.61,32.61,0,0,1-1,8.57,17.1,17.1,0,0,1-2.88,6.08,11.8,11.8,0,0,1-4.5,3.6,13.77,13.77,0,0,1-5.8,1.19,11.11,11.11,0,0,1-6.94-2,13.62,13.62,0,0,1-4.14-5.4H187v6.55h-9.21Zm16.92,46.8a7.93,7.93,0,0,0,6.22-2.45,9.63,9.63,0,0,0,2.2-6.7V39.6a9.66,9.66,0,0,0-2.2-6.7,7.92,7.92,0,0,0-6.22-2.44A9.41,9.41,0,0,0,189.25,32,5.35,5.35,0,0,0,187,36.72V48.38a5.32,5.32,0,0,0,2.27,4.72A9.42,9.42,0,0,0,194.69,54.65Z" transform="translate(-4.82 -7.27)"/><path d="M237.6,62a19.77,19.77,0,0,1-7.6-1.37,15.78,15.78,0,0,1-5.69-3.88,17.22,17.22,0,0,1-3.6-6.12,24.32,24.32,0,0,1-1.26-8.07,24.3,24.3,0,0,1,1.26-8.06,17.22,17.22,0,0,1,3.6-6.12A15.81,15.81,0,0,1,230,24.48a21.65,21.65,0,0,1,15.16,0,15.75,15.75,0,0,1,5.72,3.89,17.22,17.22,0,0,1,3.6,6.12,24.3,24.3,0,0,1,1.26,8.06,24.32,24.32,0,0,1-1.26,8.07,17.22,17.22,0,0,1-3.6,6.12,15.73,15.73,0,0,1-5.72,3.88A19.88,19.88,0,0,1,237.6,62Zm0-7.05a8.25,8.25,0,0,0,6.26-2.42c1.54-1.6,2.3-4,2.3-7.09V39.67c0-3.12-.76-5.48-2.3-7.09a9.35,9.35,0,0,0-12.53,0Q229,35,229,39.67v5.76c0,3.12.77,5.49,2.3,7.09A8.27,8.27,0,0,0,237.6,54.94Z" transform="translate(-4.82 -7.27)"/><path d="M280.8,62a19.77,19.77,0,0,1-7.6-1.37,15.78,15.78,0,0,1-5.69-3.88,17.22,17.22,0,0,1-3.6-6.12,24.32,24.32,0,0,1-1.26-8.07,24.3,24.3,0,0,1,1.26-8.06,17.22,17.22,0,0,1,3.6-6.12,15.81,15.81,0,0,1,5.69-3.89,21.65,21.65,0,0,1,15.16,0,15.75,15.75,0,0,1,5.72,3.89,17.22,17.22,0,0,1,3.6,6.12,24.3,24.3,0,0,1,1.26,8.06,24.32,24.32,0,0,1-1.26,8.07,17.22,17.22,0,0,1-3.6,6.12,15.73,15.73,0,0,1-5.72,3.88A19.88,19.88,0,0,1,280.8,62Zm0-7.05a8.25,8.25,0,0,0,6.26-2.42c1.54-1.6,2.3-4,2.3-7.09V39.67c0-3.12-.76-5.48-2.3-7.09a9.35,9.35,0,0,0-12.53,0q-2.29,2.41-2.3,7.09v5.76c0,3.12.77,5.49,2.3,7.09A8.27,8.27,0,0,0,280.8,54.94Z" transform="translate(-4.82 -7.27)"/><path d="M307.94,7.85h9.22V39.1h.43l5.4-5.91L332.13,24h10.73L328.1,38.59l16.34,22.54h-11L321.55,43.85,317.16,48V61.13h-9.22Z" transform="translate(-4.82 -7.27)"/><path d="M367.05,62A21.8,21.8,0,0,1,356,59.47a22.78,22.78,0,0,1-7.13-6.41l4.4-3.6a21.27,21.27,0,0,0,6.22,5.48,16,16,0,0,0,7.82,1.8c3.64,0,6.43-.84,8.35-2.51a8.8,8.8,0,0,0,2.88-7,7.6,7.6,0,0,0-2.09-5.69c-1.39-1.36-3.82-2.33-7.27-2.9l-5.62-.94a21.31,21.31,0,0,1-6.15-1.94,12.7,12.7,0,0,1-4-3.14,11.23,11.23,0,0,1-2.16-4,16.13,16.13,0,0,1-.65-4.57q0-6.93,4.54-10.46T367.34,10a22.93,22.93,0,0,1,10.19,2,17.18,17.18,0,0,1,6.66,5.73l-4.25,3.68a17.1,17.1,0,0,0-5-4.47,15,15,0,0,0-7.63-1.73q-5.11,0-7.85,2.15t-2.74,6.44a7.54,7.54,0,0,0,2.05,5.47q2.06,2.12,7.38,3l5.4.93a21.66,21.66,0,0,1,6.2,2,13.18,13.18,0,0,1,4.06,3.1,10.62,10.62,0,0,1,2.2,4,16.87,16.87,0,0,1,.65,4.69q0,7-4.57,11T367.05,62Z" transform="translate(-4.82 -7.27)"/><path d="M395.85,7.85h5.76V30h.29a14.29,14.29,0,0,1,1.44-2.62,9,9,0,0,1,2.12-2.2,10.62,10.62,0,0,1,3-1.51,12.59,12.59,0,0,1,4-.58,12.32,12.32,0,0,1,9.36,3.71q3.53,3.7,3.53,10.48V61.13h-5.76V38.3c0-3.4-.74-5.94-2.23-7.59s-3.67-2.49-6.55-2.49a13.3,13.3,0,0,0-3.39.44A9.61,9.61,0,0,0,404.49,30a6.76,6.76,0,0,0-2.09,2.23,6.22,6.22,0,0,0-.79,3.17V61.13h-5.76Z" transform="translate(-4.82 -7.27)"/><path d="M467.63,61.13q-3.37,0-4.82-1.73a8.38,8.38,0,0,1-1.8-4.32h-.36a10.46,10.46,0,0,1-3.92,5.08A12.73,12.73,0,0,1,449.49,62q-5.83,0-9.29-3a10.45,10.45,0,0,1-3.45-8.28,9.35,9.35,0,0,1,3.78-8q3.78-2.82,12.2-2.81h7.92V36.24q0-4.08-2.3-6.12a9.58,9.58,0,0,0-6.56-2,11.41,11.41,0,0,0-6.12,1.48,11.06,11.06,0,0,0-3.81,4L438,30.67a13.3,13.3,0,0,1,1.94-2.82,12.62,12.62,0,0,1,3-2.44,16.92,16.92,0,0,1,4.1-1.68,19.82,19.82,0,0,1,5.11-.62q6.56,0,10.41,3.32t3.85,9.24V56.16h5.18v5Zm-17.13-4a14.47,14.47,0,0,0,4.07-.54,11.91,11.91,0,0,0,3.2-1.44A6.71,6.71,0,0,0,459.89,53a5.11,5.11,0,0,0,.76-2.7V44.21h-7.92q-5.19,0-7.56,1.44a4.61,4.61,0,0,0-2.38,4.17v1.52a5,5,0,0,0,2.06,4.35A9.46,9.46,0,0,0,450.5,57.17Z" transform="translate(-4.82 -7.27)"/><path d="M480.74,56.16h10.87V28.94H480.74V24h16.63v9.36h.36a12.41,12.41,0,0,1,4.35-6.88A12.94,12.94,0,0,1,510.26,24h5.18v5.76h-7a11.24,11.24,0,0,0-8,2.87,9.86,9.86,0,0,0-3.06,7.54v16h14.4v5h-31Z" transform="translate(-4.82 -7.27)"/><path d="M526,56.16h13.4V28.94H526V24h19.16V56.16H557.7v5H526ZM542.3,15.77a4.79,4.79,0,0,1-3.53-1,3.62,3.62,0,0,1-1-2.62V10.94a3.62,3.62,0,0,1,1-2.62,6.44,6.44,0,0,1,7.05,0,3.58,3.58,0,0,1,1,2.62V12.1a3.58,3.58,0,0,1-1,2.62A4.76,4.76,0,0,1,542.3,15.77Z" transform="translate(-4.82 -7.27)"/><path d="M568.65,61.13V24h5.76v6h.29a14.29,14.29,0,0,1,1.44-2.62,9,9,0,0,1,2.12-2.2,10.62,10.62,0,0,1,3-1.51,12.55,12.55,0,0,1,4-.58,12.32,12.32,0,0,1,9.36,3.71q3.52,3.7,3.53,10.48V61.13h-5.76V38.3c0-3.4-.75-5.94-2.23-7.59s-3.68-2.49-6.56-2.49a13.23,13.23,0,0,0-3.38.44,9.51,9.51,0,0,0-3,1.29,6.66,6.66,0,0,0-2.09,2.23,6.22,6.22,0,0,0-.79,3.17V61.13Z" transform="translate(-4.82 -7.27)"/><path d="M645.18,65.41a8.92,8.92,0,0,1-4.68,8.29q-4.68,2.68-14,2.69-9,0-12.92-2.37a7.56,7.56,0,0,1-3.93-6.84,6.47,6.47,0,0,1,1.59-4.68,9.44,9.44,0,0,1,4.46-2.45v-.87a6.5,6.5,0,0,1-2.45-2,5.3,5.3,0,0,1-.86-3.1,5.08,5.08,0,0,1,1.91-4.32,13.15,13.15,0,0,1,4.79-2.16V47.3a11.77,11.77,0,0,1-5.37-4.46,12.47,12.47,0,0,1-1.91-6.91,13.23,13.23,0,0,1,1-5.19,11.17,11.17,0,0,1,2.92-4.06,13.43,13.43,0,0,1,4.57-2.63,17.55,17.55,0,0,1,5.9-.94,17,17,0,0,1,7.35,1.51V24a5.94,5.94,0,0,1,1-3.56A4,4,0,0,1,638,19h6.84v5h-8.35V26.5a11.82,11.82,0,0,1,3.1,4.1,13.5,13.5,0,0,1,0,10.51,11.8,11.8,0,0,1-2.91,4.07,13.26,13.26,0,0,1-4.58,2.63,18.14,18.14,0,0,1-5.94.93c-.62,0-1.22,0-1.8-.07s-1.15-.12-1.72-.21a10,10,0,0,0-1.8.47,7.38,7.38,0,0,0-1.73.87,5.07,5.07,0,0,0-1.3,1.27,2.94,2.94,0,0,0-.5,1.68A2.17,2.17,0,0,0,619,55a14.31,14.31,0,0,0,4.32.54h8.21q7.2,0,10.44,2.69A8.9,8.9,0,0,1,645.18,65.41Zm-5.4.25A4.22,4.22,0,0,0,638,62.1q-1.8-1.34-6.26-1.33H618.83c-2.5,1-3.74,2.69-3.74,5A5.49,5.49,0,0,0,617,70c1.3,1.18,3.46,1.76,6.48,1.76h5.62A16.41,16.41,0,0,0,637,70.24,5,5,0,0,0,639.78,65.66ZM626.17,44.28q4.32,0,6.38-2a7.15,7.15,0,0,0,2.05-5.32V34.85a7,7,0,0,0-2.05-5.29q-2.06-2-6.38-2t-6.33,2a7.05,7.05,0,0,0-2,5.29v2.09a7.17,7.17,0,0,0,2,5.32Q621.85,44.29,626.17,44.28Z" transform="translate(-4.82 -7.27)"/><path d="M655.19,61.56a3.43,3.43,0,0,1-2.38-.68,2.43,2.43,0,0,1-.72-1.84v-.72a2.43,2.43,0,0,1,.72-1.84,4.5,4.5,0,0,1,4.76,0,2.43,2.43,0,0,1,.72,1.84V59a2.43,2.43,0,0,1-.72,1.84A3.43,3.43,0,0,1,655.19,61.56Z" transform="translate(-4.82 -7.27)"/><path d="M685.29,62q-10.51,0-16.35-7.34l1.08-.94A17.2,17.2,0,0,0,676.57,59a21.28,21.28,0,0,0,8.64,1.62c3.89,0,7-.76,9.36-2.3s3.53-3.91,3.53-7.13a7.76,7.76,0,0,0-.68-3.45,5.86,5.86,0,0,0-2-2.27,10.8,10.8,0,0,0-3.2-1.41A40.7,40.7,0,0,0,688,43.2l-5.76-.79a37.23,37.23,0,0,1-4.64-.94,11.59,11.59,0,0,1-3.64-1.62,7.42,7.42,0,0,1-2.38-2.66,8.83,8.83,0,0,1-.86-4.14,9.41,9.41,0,0,1,1-4.61,8.71,8.71,0,0,1,2.85-3.06,12.61,12.61,0,0,1,4.17-1.73,23.11,23.11,0,0,1,5.12-.54,21.9,21.9,0,0,1,4.93.51,19.08,19.08,0,0,1,3.89,1.29,14.93,14.93,0,0,1,3,1.87A22.65,22.65,0,0,1,698,28.94L697,30a24.34,24.34,0,0,0-2.2-2.08,12.52,12.52,0,0,0-2.77-1.77,17.45,17.45,0,0,0-3.6-1.22,20.9,20.9,0,0,0-4.68-.47,15.46,15.46,0,0,0-8.42,2q-3.17,2-3.17,6.48a7.76,7.76,0,0,0,.68,3.45,5.93,5.93,0,0,0,2,2.27,11.3,11.3,0,0,0,3.21,1.44,26.77,26.77,0,0,0,4.24.83l5.76.79a37.77,37.77,0,0,1,4.65.94,11.63,11.63,0,0,1,3.63,1.62,7.31,7.31,0,0,1,2.38,2.7,8.86,8.86,0,0,1,.86,4.1A10.08,10.08,0,0,1,698.5,56a9.75,9.75,0,0,1-3,3.38,13.37,13.37,0,0,1-4.53,2A23.22,23.22,0,0,1,685.29,62Z" transform="translate(-4.82 -7.27)"/><path d="M706.89,24h1.51v5.61h.21a11.69,11.69,0,0,1,1.59-2.34,10.25,10.25,0,0,1,2.45-2.09A13.58,13.58,0,0,1,716,23.69a14.18,14.18,0,0,1,4.25-.58c4.79,0,8.52,1.62,11.16,4.86s4,8.1,4,14.58-1.33,11.34-4,14.58S725,62,720.21,62a14.53,14.53,0,0,1-4.25-.57,14,14,0,0,1-3.31-1.48,10.59,10.59,0,0,1-2.45-2,10.2,10.2,0,0,1-1.59-2.38h-.21v20h-1.51Zm13.32,36.64q6.54,0,10-4.35t3.46-12V40.82q0-7.62-3.46-12t-10-4.36a14,14,0,0,0-4.47.72,12,12,0,0,0-3.78,2,10,10,0,0,0-2.59,3.09,8.18,8.18,0,0,0-1,4V50.83a8.18,8.18,0,0,0,1,4,10.15,10.15,0,0,0,2.59,3.1,12.2,12.2,0,0,0,3.78,2A14,14,0,0,0,720.21,60.62Z" transform="translate(-4.82 -7.27)"/><path d="M766.07,61.13A1.85,1.85,0,0,1,764,59V55.58h-.22a12.27,12.27,0,0,1-4.28,4.5c-1.94,1.27-4.67,1.91-8.17,1.91-4,0-7-.87-9.15-2.63S739,55.08,739,51.77a12.42,12.42,0,0,1,.68-4.18,7.59,7.59,0,0,1,2.3-3.31,11.85,11.85,0,0,1,4.36-2.16,24.91,24.91,0,0,1,6.84-.79H764V35.5q0-5.62-2.88-8.32t-7.92-2.7a14.48,14.48,0,0,0-7.06,1.69,10.69,10.69,0,0,0-4.68,5.44l-1.22-.72A12.76,12.76,0,0,1,745,25.2a14.7,14.7,0,0,1,8.17-2.09q5.84,0,9.07,3.17t3.24,9V59.76h6.12v1.37Zm-14.76-.51a17.75,17.75,0,0,0,4.82-.64,12.41,12.41,0,0,0,4-1.9,9.5,9.5,0,0,0,2.78-3.16,9,9,0,0,0,1-4.41V42.7H753.25q-6.84,0-9.72,2.22a6.92,6.92,0,0,0-2.88,5.74V53a6.44,6.44,0,0,0,3,5.7A13.61,13.61,0,0,0,751.31,60.62Z" transform="translate(-4.82 -7.27)"/><path d="M792.06,62q-7.2,0-11.23-4.86t-4-14.58q0-9.72,4-14.58t11.23-4.86a13.71,13.71,0,0,1,8.1,2.27,11.69,11.69,0,0,1,4.43,5.8l-1.37.43A10.8,10.8,0,0,0,799,26.32a12.5,12.5,0,0,0-7-1.84q-6.55,0-10.08,4.36t-3.53,12v3.46q0,7.63,3.53,12t10.08,4.35a12.12,12.12,0,0,0,11.74-7.41l1.29.57A14.08,14.08,0,0,1,803.18,57a12.52,12.52,0,0,1-2.8,2.63,13.68,13.68,0,0,1-3.71,1.76A15.29,15.29,0,0,1,792.06,62Z" transform="translate(-4.82 -7.27)"/><path d="M826.4,62c-4.89,0-8.69-1.62-11.37-4.86s-4-8.1-4-14.58,1.32-11.34,4-14.58,6.36-4.86,11.16-4.86a15.34,15.34,0,0,1,6.52,1.33,12.57,12.57,0,0,1,4.72,3.78,17.56,17.56,0,0,1,2.84,5.91,28.58,28.58,0,0,1,1,7.77v.51H812.65v1.87q0,7.63,3.53,12t10.22,4.35a14,14,0,0,0,8-2.19,13.28,13.28,0,0,0,4.93-6.73l1.3.5a15.14,15.14,0,0,1-5.22,7.16A14.67,14.67,0,0,1,826.4,62Zm-.29-37.51q-6.54,0-10,4.34t-3.46,11.93V41h26.93v-.29q0-7.59-3.46-11.93T826.11,24.48Z" transform="translate(-4.82 -7.27)"/></svg>