<svg id="Layer_1" data-name="Layer 1" xmlns="http://www.w3.org/2000/svg" viewBox="0 0 42.68 49.84"><g id="Canvas"><g id="Group"><g id="Group-2" data-name="Group"><g id="Group-3" data-name="Group"><g id="g"><g id="path"><g id="path9_fill" data-name="path9 fill"><path id="path0_fill" data-name="path0 fill" d="M2.29,26.84c0,2.22-.14,2.71-1.75,2.93l.12.89c4.36.12,2.41-6.76,2.82-9.3H2.29Z" transform="translate(-0.54 -0.78)" style="fill:#4e4e4e"/></g></g><g id="path-2" data-name="path"><g id="path10_fill" data-name="path10 fill"><path id="path1_fill" data-name="path1 fill" d="M11.18,26.13a16.12,16.12,0,0,0,.06,1.78H10.18l-.08-1.06c-1.32,1.93-4.44,1.81-4.42-1.63V21.41H6.87C7.06,23,6,28,9,26.92c1.74-.5.82-4.32,1-5.55h1.19V26.1Z" transform="translate(-0.54 -0.78)" style="fill:#4e4e4e"/></g></g><g id="path-3" data-name="path"><g id="path11_fill" data-name="path11 fill"><path id="path2_fill" data-name="path2 fill" d="M13.44,23.53c0-.83,0-1.5,0-2.12h1.07l0,1.12c1.58-2.46,5.28-1.13,5.11,2,.1,3.24-3.29,4.64-5,2.46h0v3.56H13.44Zm1.18,1.74c.13,2.77,4.14,2.26,3.83-.65C18.4,20.88,13.9,22,14.62,25.27Z" transform="translate(-0.54 -0.78)" style="fill:#4e4e4e"/></g></g><g id="path-4" data-name="path"><g id="path12_fill" data-name="path12 fill"><path id="path3_fill" data-name="path3 fill" d="M21.75,21.41c.34,1,1.63,4.23,1.85,5.16.24-.9,1.4-4.21,1.72-5.16h1.25c-1.38,2.85-2.4,8.81-5.49,9.46l-.29-1c4.22-1.25.19-6.1-.36-8.48h1.3Z" transform="translate(-0.54 -0.78)" style="fill:#4e4e4e"/></g></g><g id="path-5" data-name="path"><g id="path13_fill" data-name="path13 fill"><path id="path4_fill" data-name="path4 fill" d="M29.74,19.54v1.87h1.71v.89H29.74c.25,1.17-.9,5.63,1.58,4.69l.06.89c-3.61,1.33-2.74-3.58-2.82-5.59h-1V21.4h1V19.82Z" transform="translate(-0.54 -0.78)" style="fill:#4e4e4e"/></g></g><g id="path-6" data-name="path"><g id="path14_fill" data-name="path14 fill"><path id="path5_fill" data-name="path5 fill" d="M33.65,24.87c-.17,2.19,2.43,2.71,4,1.91l.2.89c-5.23,2.72-7.89-5.74-2.33-6.38,2.42.07,2.74,2.15,2.67,3.61h-4.6ZM37.14,24c.29-2.53-3.54-2.39-3.48,0Z" transform="translate(-0.54 -0.78)" style="fill:#4e4e4e"/></g></g><g id="path-7" data-name="path"><g id="path15_fill" data-name="path15 fill"><path id="path6_fill" data-name="path6 fill" d="M40,23.43c0-.76,0-1.42-.05-2h1.07v1.28h.05a2,2,0,0,1,2.12-1.43v1.11c-2.89-.35-1.89,3.89-2.06,5.53H40V23.44Z" transform="translate(-0.54 -0.78)" style="fill:#4e4e4e"/></g></g></g></g><g id="g-2" data-name="g"><g id="path-8" data-name="path"><g id="path16_fill" data-name="path16 fill"><path id="path7_fill" data-name="path7 fill" d="M39.51,3.53c.3,3.55-5.15,4.4-5.94.92C32.5.3,39.3-.77,39.51,3.53Z" transform="translate(-0.54 -0.78)" style="fill:#767677"/></g></g><g id="path-9" data-name="path"><g id="path17_fill" data-name="path17 fill"><path id="path8_fill" data-name="path8 fill" d="M21.91,38.39c-8,0-15.06-2.87-18.7-7.12,5.64,17.05,31.76,17,37.39,0C37,35.52,30,38.39,21.91,38.39Z" transform="translate(-0.54 -0.78)" style="fill:#f37726"/></g></g><g id="path-10" data-name="path"><g id="path18_fill" data-name="path18 fill"><path id="path9_fill-2" data-name="path9 fill" d="M21.91,10.78c8,0,15.05,2.87,18.69,7.12C35,.85,8.84.86,3.21,17.9,6.85,13.64,13.86,10.78,21.91,10.78Z" transform="translate(-0.54 -0.78)" style="fill:#f37726"/></g></g><g id="path-11" data-name="path"><g id="path19_fill" data-name="path19 fill"><path id="path10_fill-2" data-name="path10 fill" d="M10.88,46.66c.38,4.48-6.49,5.55-7.48,1.16-1.35-5.22,7.2-6.56,7.48-1.16Z" transform="translate(-0.54 -0.78)" style="fill:#9e9e9e"/></g></g><g id="path-12" data-name="path"><g id="path20_fill" data-name="path20 fill"><path id="path11_fill-2" data-name="path11 fill" d="M4.12,9.81C1.56,9.94,1.05,6,3.56,5.49,6.61,4.77,7.25,9.7,4.12,9.81Z" transform="translate(-0.54 -0.78)" style="fill:#616262"/></g></g></g></g></g></g></svg>