<svg id="Layer_1" data-name="Layer 1" xmlns="http://www.w3.org/2000/svg" viewBox="0 0 619.59 619.59"><circle cx="309.8" cy="309.8" r="309.8" style="fill:#75aadb"/><path d="M428.16,416.6h33.6v26.1h-51.3l-85-127.4h-45.3V416.6h44.3v26.1H213V416.6h38.3V192.1L213,187.4V162.7c14.5,3.3,27.1,5.6,42.9,5.6,23.8,0,48.1-5.6,71.9-5.6,46.2,0,89.1,21,89.1,72.3,0,39.7-23.8,64.9-60.7,75.6Zm-148-126.5,24.3.5c59.3.9,82.1-21.9,82.1-52.3,0-35.5-25.7-49.5-58.3-49.5-15.4,0-31.3,1.4-48.1,3.3Z" transform="translate(-12.34 -7.93)" style="fill:#fff"/></svg>