<svg id="Layer_1" data-name="Layer 1" xmlns="http://www.w3.org/2000/svg" xmlns:xlink="http://www.w3.org/1999/xlink" viewBox="0 0 256.29 254.68"><defs><mask id="mask" x="0" y="0" width="256.29" height="254.68" maskUnits="userSpaceOnUse"><g transform="translate(0.28 -0.66)"><g id="mask0"><path d="M181.53,254.25a15.93,15.93,0,0,0,12.7-.49l52.71-25.36A16,16,0,0,0,256,214V42a16,16,0,0,0-9.06-14.42L194.23,2.24A15.94,15.94,0,0,0,178,3.7a16.3,16.3,0,0,0-1.91,1.63L75.15,97.39,31.2,64a10.65,10.65,0,0,0-13.61.61L3.49,77.45a10.68,10.68,0,0,0,0,15.78L41.59,128,3.48,162.77a10.68,10.68,0,0,0,0,15.78l14.1,12.82A10.65,10.65,0,0,0,31.2,192l44-33.37,100.9,92.06A16,16,0,0,0,181.53,254.25ZM192,69.89,115.48,128,192,186.12Z" style="fill:#fff;fill-rule:evenodd"/></g></g></mask><linearGradient id="linear-gradient" x1="127.78" y1="257.34" x2="127.78" y2="2.83" gradientTransform="matrix(1, 0, 0, -1, 0, 258)" gradientUnits="userSpaceOnUse"><stop offset="0" stop-color="#fff"/><stop offset="1" stop-color="#fff" stop-opacity="0"/></linearGradient></defs><g style="mask:url(#mask)"><path d="M246.94,27.64,194.19,2.24A15.94,15.94,0,0,0,176,5.33L3.32,162.77c-11.48,10.75,7.6,21.86,14.12,28.6C21.37,212.59,233.57,32.69,239,34.23a10.59,10.59,0,0,1,17,8.44A16,16,0,0,0,246.94,27.64Z" transform="translate(0.28 -0.66)" style="fill:#0065a9"/><path d="M246.94,228.36l-52.75,25.4A15.94,15.94,0,0,1,176,250.67L3.32,93.23c-11.48-10.75,7.6-21.86,14.12-28.6C21.36,43.41,233.58,223.31,239,221.77a10.59,10.59,0,0,0,17-8.44A16,16,0,0,1,246.94,228.36Z" transform="translate(0.28 -0.66)" style="fill:#007acc"/><path d="M194.2,253.76a16,16,0,0,1-18.2-3.09A9.37,9.37,0,0,0,192,244V12a9.37,9.37,0,0,0-16-6.63,16,16,0,0,1,18.2-3.09L246.93,27.6A16,16,0,0,1,256,42V214a16,16,0,0,1-9.07,14.42Z" transform="translate(0.28 -0.66)" style="fill:#1f9cf0"/><g style="opacity:0.25"><path d="M181.38,254.25c9,6.49,56.65-23.57,65.4-25.85A16,16,0,0,0,255.84,214V42a16,16,0,0,0-9.06-14.42L194.08,2.24a16,16,0,0,0-18.19,3.09L75,97.39,31,64a10.65,10.65,0,0,0-13.61.61c-6.5,6.77-25.61,17.8-14.11,28.6L41.44,128,3.32,162.77c-11.49,10.78,7.61,21.84,14.11,28.6A10.65,10.65,0,0,0,31,192L75,158.61l100.9,92.06A15.94,15.94,0,0,0,181.38,254.25Zm10.5-184.36L115.32,128l76.56,58.12Z" transform="translate(0.28 -0.66)" style="fill-rule:evenodd;fill:url(#linear-gradient)"/></g></g></svg>