<svg xmlns="http://www.w3.org/2000/svg" viewBox="0 0 442.58 61.92"><path d="M13.82,26.35v2a14,14,0,0,1,11.52-5.47,14.56,14.56,0,0,1,7.35,2,10.42,10.42,0,0,1,4.68,4.93,17.15,17.15,0,0,1,1,6.41V49.93c0,2.07,0,3.29.07,3.67.24,1.64.89,2.45,1.94,2.45a10.36,10.36,0,0,0,1.69-.18,10.18,10.18,0,0,1,1.48-.18,2.3,2.3,0,0,1,1.62.65,2.08,2.08,0,0,1,.68,1.58,2.23,2.23,0,0,1-.86,1.8,3.16,3.16,0,0,1-2.09.72,30.47,30.47,0,0,1-3.31-.28,33.56,33.56,0,0,0-4.32-.29,29.08,29.08,0,0,0-3.1.14c-2.4.29-3.67.43-3.81.43q-2.88,0-2.88-2.52c0-1.48.83-2.23,2.49-2.23a6.68,6.68,0,0,1,1.33.15,11.78,11.78,0,0,0,1.76.28c1.17,0,1.81-1.32,1.91-4V38.63a25.37,25.37,0,0,0-.36-5.26,7,7,0,0,0-2.8-4.25,9.18,9.18,0,0,0-5.38-1.65q-5.73,0-8.25,4.1c-1.14,1.87-1.72,5.07-1.72,9.58v9.57A14.49,14.49,0,0,0,14.9,55a1.6,1.6,0,0,0,1.59,1.16,7,7,0,0,0,1.58-.26,7.59,7.59,0,0,1,1.66-.25c1.49,0,2.23.81,2.23,2.41s-1,2.34-2.88,2.34c-.38,0-1.63-.14-3.74-.43a27.14,27.14,0,0,0-3.53-.21,37.43,37.43,0,0,0-4,.28q-3.18.36-3.6.36c-2,0-3-.81-3-2.44A2.06,2.06,0,0,1,3.5,55.69a7.38,7.38,0,0,1,1.36.22,9.22,9.22,0,0,0,1.94.21C8.27,56.12,9,54.73,9.07,52V32.72a9.16,9.16,0,0,0-.62-3.34,1.71,1.71,0,0,0-1.65-.9,9,9,0,0,0-1.5.18,9.37,9.37,0,0,1-1.51.18q-2.64,0-2.64-2.31t3.24-2.37a2.92,2.92,0,0,1,.72.07l2.67.29a9.93,9.93,0,0,0,2-.18l2-.18C13.13,24.16,13.82,24.89,13.82,26.35Z" transform="translate(-1.15 -11.2)"/><path d="M58.1,14.28q-.63,6-.72,14.12a14.5,14.5,0,0,1,4.7-4.24,13,13,0,0,1,6-1.23,14.26,14.26,0,0,1,11.48,5q4.26,5,4.26,13.39,0,9.15-4.5,14.58a14.92,14.92,0,0,1-12.13,5.44q-7.43,0-10.73-5.54c.19,1.39.29,2.16.29,2.3,0,1.73-.84,2.59-2.52,2.59s-2.52-1.2-2.52-3.6v-5l.36-5.54V20.05a9.93,9.93,0,0,0-.54-3.6,1.68,1.68,0,0,0-1.62-.93c-.15,0-.77.09-1.88.28a7.39,7.39,0,0,1-1.36.15c-1.64,0-2.45-.77-2.45-2.31s1-2.37,2.88-2.37a11.72,11.72,0,0,1,1.44.07l1.73.22a16.82,16.82,0,0,0,1.87.14,15.31,15.31,0,0,0,2.23-.22,16.43,16.43,0,0,1,2.16-.21c1.06,0,1.58.67,1.58,2ZM57.89,35.1a31.74,31.74,0,0,0-.51,6.48c0,4.75.39,8,1.16,9.79q2.25,5.27,8.56,5.26A9.41,9.41,0,0,0,75,52.7Q78,48.79,78,42.16q0-6.78-2.8-10.62a8.94,8.94,0,0,0-7.65-3.86,9.83,9.83,0,0,0-6.16,2.13A9.12,9.12,0,0,0,57.89,35.1Z" transform="translate(-1.15 -11.2)"/><path d="M104.43,22.93a12.65,12.65,0,0,1,8,2.52v-.29c0-1.77.77-2.66,2.31-2.66a2.07,2.07,0,0,1,2.37,2.3q0,.43-.12,2.16a17.49,17.49,0,0,0-.24,2.88,25.13,25.13,0,0,0,.18,2.52q.18,1.66.18,2.52c0,1.83-.78,2.74-2.34,2.74a2.09,2.09,0,0,1-2.34-2.3V32.94A4.59,4.59,0,0,0,110,29.23a10.25,10.25,0,0,0-5.65-1.55,8.92,8.92,0,0,0-5.55,1.7,5.08,5.08,0,0,0-2.23,4.21q0,4.6,6.34,5.47l4.17.58q12.24,1.65,12.24,10.15a10.28,10.28,0,0,1-4,8.39q-3.94,3.2-10.33,3.2A16.44,16.44,0,0,1,94.68,58v1.36c0,1.73-.82,2.6-2.45,2.6-1.78,0-2.66-1-2.66-3,0,.34.14-.91.43-3.74a15.12,15.12,0,0,0,.14-2A16.69,16.69,0,0,0,89.85,50a13.49,13.49,0,0,1-.28-2.37c0-1.68.76-2.52,2.3-2.52,1,0,1.64.24,1.91.72a11.2,11.2,0,0,1,.47,3.81,5.9,5.9,0,0,0,3.24,5,15.15,15.15,0,0,0,8.06,2,9.17,9.17,0,0,0,5.83-1.8,5.52,5.52,0,0,0,2.31-4.54q0-4.89-7.78-5.69c-4.94-.52-8.71-1.5-11.3-2.91s-3.89-3.9-3.89-7.45a10.11,10.11,0,0,1,3.8-8.18A15.14,15.14,0,0,1,104.43,22.93Z" transform="translate(-1.15 -11.2)"/><path d="M135.93,13.73l-.28,14A19,19,0,0,1,140.92,24a15.77,15.77,0,0,1,15.6,2.48,12.16,12.16,0,0,1,3.75,9.29v12c0,2.83,0,4.39.07,4.68.19,2.4.82,3.6,1.87,3.6a5.14,5.14,0,0,0,1.66-.4,5.1,5.1,0,0,1,1.15-.1c1.78,0,2.67.81,2.67,2.45s-1.16,2.44-3.46,2.44a25.76,25.76,0,0,1-2.74-.21,43.08,43.08,0,0,0-4.89-.36,23,23,0,0,0-2.88.14c-2,.29-3.27.43-3.75.43a3.19,3.19,0,0,1-2.16-.75,2.45,2.45,0,0,1-.86-1.91,2,2,0,0,1,.76-1.58,2.58,2.58,0,0,1,1.76-.65,6,6,0,0,1,1.87.36,4,4,0,0,0,1.23.21q2.16,0,2.23-4.68c0-.57,0-1.7.14-3.38v-7q0-7.35-1.44-9.87-2.1-3.74-7.38-3.74-5.7,0-8.31,3.89c-1.2,1.77-1.83,4.63-1.88,8.56v5.19a6,6,0,0,1-.28,1.44v1.37c0,2.73,0,4.32.07,4.75.25,2.35,1,3.53,2.15,3.53a6.1,6.1,0,0,0,1.66-.33,6.45,6.45,0,0,1,1.6-.32,2.06,2.06,0,0,1,2.36,2.3c0,1.73-1.06,2.59-3.18,2.59-.68,0-1.7-.07-3.05-.21a47.11,47.11,0,0,0-4.71-.29c-.82,0-2,.07-3.41.22-1.93.19-3.17.28-3.7.28q-3,0-3-2.67,0-2.22,2.79-2.22a3.64,3.64,0,0,1,1.39.2,8.84,8.84,0,0,0,1.76.3c.78,0,1.31-.73,1.58-2.19a68.35,68.35,0,0,0,.47-9V32A124.51,124.51,0,0,0,130,18.36c-.29-1.9-1-2.84-2-2.84a8.2,8.2,0,0,0-1.51.21,7.67,7.67,0,0,1-1.58.22c-1.63,0-2.45-.77-2.45-2.31a2.18,2.18,0,0,1,.86-1.72,3.18,3.18,0,0,1,2.09-.72c.24,0,1.06.07,2.45.21a27.17,27.17,0,0,0,2.95.15,12.49,12.49,0,0,0,1.8-.18,12.26,12.26,0,0,1,1.66-.18c1.1,0,1.65.79,1.65,2.38Z" transform="translate(-1.15 -11.2)"/><path d="M201.53,61.09q-5.91,0-7.28-5.11c-2.44,3.6-6.29,5.4-11.52,5.4q-5.82,0-9.32-2.88a9.47,9.47,0,0,1-3.49-7.7A9.34,9.34,0,0,1,175,42a13.15,13.15,0,0,1,3.35-1.4c.93-.22,2.82-.49,5.65-.83q6-.64,7.88-1.8c1.23-.77,1.84-2.18,1.84-4.25a5.68,5.68,0,0,0-2.05-4.64A8.76,8.76,0,0,0,186,27.4a11,11,0,0,0-6,1.8c-.72.48-1.08,1-1.08,1.51,0,.19.21.43.64.72a2.78,2.78,0,0,1,1,2.45,3,3,0,0,1-1,2.37,3.77,3.77,0,0,1-2.63.94,4.17,4.17,0,0,1-3.13-1.3,4.37,4.37,0,0,1-1.26-3.17c0-2.68,1.33-5,4-6.91a16.16,16.16,0,0,1,9.69-2.88q13.09,0,13.1,12.57V50a29.31,29.31,0,0,0,.15,4.09c.28,1.68,1.1,2.52,2.44,2.52q2.52,0,2.52-4.58v-3.5c0-1.53.74-2.29,2.2-2.29s2.34,1.15,2.34,3.46v4.46Q208.72,61.1,201.53,61.09Zm-8-14.33V41.65a9.29,9.29,0,0,1-3.33,2,33.72,33.72,0,0,1-6.27,1q-8.19.78-8.18,6a5.22,5.22,0,0,0,2,4.32,8.33,8.33,0,0,0,5.36,1.59,10.61,10.61,0,0,0,7.6-2.63A9.67,9.67,0,0,0,193.53,46.76Z" transform="translate(-1.15 -11.2)"/><path d="M222.05,26.21v2a12.55,12.55,0,0,1,18.18-2.41,9.43,9.43,0,0,1,3.13,7.3,8,8,0,0,1-1.59,5.15,5.06,5.06,0,0,1-4.17,2,4.08,4.08,0,0,1-2.81-1,3.11,3.11,0,0,1-1.15-2.44,2.92,2.92,0,0,1,.86-2.06,2.72,2.72,0,0,1,2-.9,4.84,4.84,0,0,1,.93.22,3.58,3.58,0,0,0,.44-1.58,4.35,4.35,0,0,0-1.84-3.53,7.18,7.18,0,0,0-4.57-1.44q-5.62,0-7.49,5-1.16,3.09-1.15,9.36v4.75c0,3.22,0,5,.07,5.4.24,2.74,1,4.1,2.23,4.1a8.45,8.45,0,0,0,2-.24,5.73,5.73,0,0,1,1.36-.19A2,2,0,0,1,230.76,58c0,1.66-1,2.48-2.94,2.48h-.29a30.79,30.79,0,0,1-3.27-.25,30.64,30.64,0,0,0-3.26-.25c-1.92,0-3.42.05-4.52.14l-4,.36q-2.94,0-2.94-2.52c0-1.48.92-2.23,2.76-2.23a7,7,0,0,1,1.09.07l1.09.22a5.54,5.54,0,0,0,1,.14c1.21,0,1.86-1.1,2-3.31V49.14l-.22-16.34c-.14-2.84-.86-4.25-2.16-4.25a8.27,8.27,0,0,0-1.58.21,7.66,7.66,0,0,1-1.59.22,2.07,2.07,0,0,1-2.37-2.3q0-2.52,3.09-2.52a19.1,19.1,0,0,1,2.16.18,19.1,19.1,0,0,0,2.16.18,15.54,15.54,0,0,0,1.88-.18,4.57,4.57,0,0,1,1.36-.18C221.42,24.16,222.05,24.84,222.05,26.21Z" transform="translate(-1.15 -11.2)"/><path d="M279.21,39a8.9,8.9,0,0,1-.36,3.35c-.24.4-.93.61-2.08.61h-22.9a2,2,0,0,0-1.22.25,1,1,0,0,0-.29.83,13,13,0,0,0,3.24,9,10.73,10.73,0,0,0,13.86,1.87,7.93,7.93,0,0,0,3.42-4.39l.65-2.09a2.23,2.23,0,0,1,2.37-1.73c1.78,0,2.67.91,2.67,2.74q0,4.68-4.76,8.31A17.24,17.24,0,0,1,263,61.38q-7.56,0-12-5.08t-4.46-13.64q0-8.79,4.75-14.26a15.64,15.64,0,0,1,12.38-5.47,14.86,14.86,0,0,1,11.16,4.54A15.86,15.86,0,0,1,279.21,39Zm-26.13-1.87c0,.67.52,1,1.58,1h17.21c1,0,1.51-.33,1.51-1a9,9,0,0,0-2.88-6.63,9.38,9.38,0,0,0-6.77-2.81,10.87,10.87,0,0,0-7.34,2.92A8.56,8.56,0,0,0,253.08,37.12Z" transform="translate(-1.15 -11.2)"/><path d="M295.41,26.21v2a12.55,12.55,0,0,1,18.18-2.41,9.41,9.41,0,0,1,3.14,7.3,8,8,0,0,1-1.59,5.15,5.09,5.09,0,0,1-4.17,2,4.06,4.06,0,0,1-2.81-1A3.11,3.11,0,0,1,307,36.76a2.88,2.88,0,0,1,.86-2.06,2.72,2.72,0,0,1,2-.9,4.84,4.84,0,0,1,.93.22,3.55,3.55,0,0,0,.43-1.58,4.34,4.34,0,0,0-1.83-3.53,7.19,7.19,0,0,0-4.57-1.44q-5.62,0-7.49,5-1.16,3.09-1.15,9.36v4.75c0,3.22,0,5,.07,5.4.24,2.74,1,4.1,2.23,4.1a8.37,8.37,0,0,0,1.94-.24,5.87,5.87,0,0,1,1.37-.19A2,2,0,0,1,304.13,58c0,1.66-1,2.48-2.95,2.48h-.28a30.79,30.79,0,0,1-3.27-.25,30.83,30.83,0,0,0-3.26-.25c-1.92,0-3.42.05-4.52.14l-4,.36q-2.94,0-2.94-2.52c0-1.48.92-2.23,2.76-2.23a7.11,7.11,0,0,1,1.09.07l1.09.22a5.58,5.58,0,0,0,1,.14c1.21,0,1.87-1.1,2-3.31V49.14l-.22-16.34c-.14-2.84-.86-4.25-2.16-4.25a8.17,8.17,0,0,0-1.58.21,7.75,7.75,0,0,1-1.59.22,2.07,2.07,0,0,1-2.37-2.3q0-2.52,3.09-2.52a19.1,19.1,0,0,1,2.16.18,19.1,19.1,0,0,0,2.16.18,15.25,15.25,0,0,0,1.87-.18,4.64,4.64,0,0,1,1.37-.18C294.79,24.16,295.41,24.84,295.41,26.21Z" transform="translate(-1.15 -11.2)"/><path d="M320.25,61.38a4.21,4.21,0,0,1-3.16-1.33,4.6,4.6,0,0,1,0-6.41,4.43,4.43,0,0,1,6.33,0,4.6,4.6,0,0,1,0,6.41A4.24,4.24,0,0,1,320.25,61.38Z" transform="translate(-1.15 -11.2)" style="opacity:0.5"/><path d="M349.49,61.38a15.23,15.23,0,0,1-12.1-5.22q-4.53-5.22-4.54-14t4.58-14q4.56-5.22,12.27-5.22T362.08,28q4.55,5.12,4.54,13.9t-4.68,14.11A15.76,15.76,0,0,1,349.49,61.38Zm.36-33.7a9.65,9.65,0,0,0-7.92,3.53q-2.9,3.52-3.17,10v.94q0,6.77,2.84,10.62a9.35,9.35,0,0,0,8,3.85,9.87,9.87,0,0,0,8.24-3.85q3-3.86,3-10.7Q360.79,27.68,349.85,27.68Z" transform="translate(-1.15 -11.2)" style="opacity:0.5"/><path d="M383.11,26.21v2a12.55,12.55,0,0,1,18.18-2.41,9.4,9.4,0,0,1,3.13,7.3,8,8,0,0,1-1.58,5.15,5.1,5.1,0,0,1-4.18,2,4.09,4.09,0,0,1-2.81-1,3.11,3.11,0,0,1-1.15-2.44,2.92,2.92,0,0,1,.86-2.06,2.72,2.72,0,0,1,2-.9,4.87,4.87,0,0,1,.94.22,3.69,3.69,0,0,0,.43-1.58,4.32,4.32,0,0,0-1.84-3.53,7.18,7.18,0,0,0-4.57-1.44q-5.61,0-7.49,5-1.16,3.09-1.15,9.36v4.75c0,3.22,0,5,.07,5.4.24,2.74,1,4.1,2.23,4.1a8.38,8.38,0,0,0,1.95-.24,5.8,5.8,0,0,1,1.37-.19,2,2,0,0,1,2.3,2.27c0,1.66-1,2.48-2.94,2.48h-.29a30.46,30.46,0,0,1-3.26-.25,30.79,30.79,0,0,0-3.27-.25c-1.91,0-3.42.05-4.52.14l-4,.36q-2.94,0-2.94-2.52c0-1.48.92-2.23,2.76-2.23a7,7,0,0,1,1.09.07l1.09.22a5.54,5.54,0,0,0,1,.14c1.21,0,1.86-1.1,2-3.31V49.14l-.22-16.34c-.14-2.84-.86-4.25-2.16-4.25a8.27,8.27,0,0,0-1.58.21A7.67,7.67,0,0,1,373,29a2.07,2.07,0,0,1-2.38-2.3c0-1.68,1-2.52,3.1-2.52a19.1,19.1,0,0,1,2.16.18,19.1,19.1,0,0,0,2.16.18,15.6,15.6,0,0,0,1.87-.18,4.6,4.6,0,0,1,1.37-.18C382.48,24.16,383.11,24.84,383.11,26.21Z" transform="translate(-1.15 -11.2)" style="opacity:0.5"/><path d="M423.5,22.93a17.93,17.93,0,0,1,4.25.58q.36-7.07,8.21-7.06a8.81,8.81,0,0,1,5.54,1.73,5.32,5.32,0,0,1,2.23,4.39,4.23,4.23,0,0,1-1.11,2.95A3.45,3.45,0,0,1,440,26.75a2.94,2.94,0,0,1-2-.79,2.5,2.5,0,0,1-.86-1.88,3.28,3.28,0,0,1,1.58-2.37,3.61,3.61,0,0,0-2.95-1.44q-3.81,0-3.89,4.75a11.34,11.34,0,0,1,5.47,9.86,10.57,10.57,0,0,1-3.75,8.28,13.65,13.65,0,0,1-9.38,3.32A20.43,20.43,0,0,1,416,44.6a5.17,5.17,0,0,0-1.95-.5,2.36,2.36,0,0,0-1.8.9,3.11,3.11,0,0,0-.8,2.12q0,3.75,7.58,3.75h2.6a39.38,39.38,0,0,1,11.12,1.29A13.55,13.55,0,0,1,439,56a8.55,8.55,0,0,1,2.3,5.82c0,3.49-1.61,6.25-4.86,8.29s-7.62,3.05-13.14,3.05-9.85-1-13-2.88a8.88,8.88,0,0,1-4.72-7.92q0-5.84,6.55-8.28-5.89-2.31-5.9-6.92,0-5,5.9-6.91a9.68,9.68,0,0,1-1.87-5.9A10.27,10.27,0,0,1,414,26.17,14,14,0,0,1,423.5,22.93Zm.29,32.69a19.8,19.8,0,0,0-9.07,1.73q-3.32,1.73-3.32,4.68c0,2,1.08,3.51,3.25,4.64a18.86,18.86,0,0,0,8.71,1.69,20,20,0,0,0,9.1-1.72c2.24-1.16,3.35-2.69,3.35-4.61s-1.05-3.59-3.16-4.72S427.58,55.62,423.79,55.62Zm-.07-27.94a8.09,8.09,0,0,0-5.4,1.88,6.51,6.51,0,0,0-2.45,4.68v.43A6.55,6.55,0,0,0,418,39.78a8.05,8.05,0,0,0,5.62,1.94,8.67,8.67,0,0,0,5.86-1.94,6.26,6.26,0,0,0,2.27-5,6.51,6.51,0,0,0-2.3-5.11A8.47,8.47,0,0,0,423.72,27.68Z" transform="translate(-1.15 -11.2)" style="opacity:0.5"/></svg>